<?xml version="1.0" encoding="utf-8"?>
<!-- Generator: Adobe Illustrator 16.0.0, SVG Export Plug-In . SVG Version: 6.00 Build 0)  -->
<!DOCTYPE svg PUBLIC "-//W3C//DTD SVG 1.1//EN" "http://www.w3.org/Graphics/SVG/1.1/DTD/svg11.dtd">
<svg version="1.1" id="RU_Download_on_the" xmlns="http://www.w3.org/2000/svg" xmlns:xlink="http://www.w3.org/1999/xlink" x="0px"
	 y="0px" width="108.75px" height="37.826px" viewBox="0 0 108.75 37.826" enable-background="new 0 0 108.75 37.826"
	 xml:space="preserve">
<path d="M24.329,18.079c-0.025-2.643,2.159-3.926,2.259-3.984c-1.233-1.799-3.151-2.049-3.823-2.065
	c-1.613-0.166-3.171,0.962-3.994,0.962c-0.835,0-2.095-0.946-3.457-0.917c-1.754,0.029-3.39,1.037-4.287,2.612
	c-1.854,3.209-0.471,7.92,1.303,10.524c0.889,1.266,1.926,2.691,3.288,2.641c1.324-0.054,1.829-0.854,3.427-0.854
	c1.595,0,2.055,0.854,3.44,0.815c1.428-0.018,2.326-1.272,3.181-2.562c1.033-1.448,1.443-2.886,1.46-2.959
	C27.096,22.281,24.356,21.232,24.329,18.079"/>
<path d="M21.713,10.321c0.713-0.899,1.204-2.11,1.064-3.343c-1.031,0.04-2.325,0.714-3.071,1.587
	c-0.663,0.769-1.252,2.031-1.1,3.226C19.773,11.875,20.965,11.2,21.713,10.321"/>
<path d="M40.398,23.123L39.48,20.28c-0.096-0.288-0.281-0.973-0.547-2.051h-0.037c-0.107,0.463-0.277,1.146-0.517,2.051
	l-0.897,2.843H40.398z M43.583,27.662h-1.856l-1.021-3.197h-3.535l-0.97,3.197h-1.813l3.508-10.89h2.167L43.583,27.662z"/>
<path d="M50.801,23.702c0-0.759-0.173-1.391-0.512-1.887c-0.382-0.516-0.885-0.777-1.521-0.777c-0.43,0-0.82,0.146-1.17,0.434
	c-0.348,0.282-0.578,0.658-0.689,1.119c-0.056,0.213-0.079,0.396-0.079,0.532v1.31c0,0.57,0.177,1.049,0.524,1.449
	c0.353,0.387,0.806,0.588,1.366,0.588c0.654,0,1.166-0.254,1.533-0.763C50.619,25.201,50.801,24.535,50.801,23.702 M52.581,23.645
	c0,1.328-0.365,2.385-1.094,3.16c-0.647,0.69-1.455,1.033-2.417,1.033c-1.037,0-1.785-0.371-2.241-1.112v4.123h-1.746v-8.455
	c0-0.842-0.018-1.702-0.062-2.581h1.533l0.094,1.245h0.031c0.59-0.946,1.47-1.408,2.655-1.408c0.927,0,1.697,0.363,2.318,1.1
	C52.269,21.483,52.581,22.448,52.581,23.645"/>
<path d="M59.832,23.702c0-0.759-0.171-1.391-0.519-1.887c-0.376-0.516-0.883-0.777-1.521-0.777c-0.429,0-0.82,0.146-1.167,0.434
	c-0.353,0.282-0.584,0.658-0.686,1.119c-0.052,0.213-0.083,0.396-0.083,0.532v1.31c0,0.57,0.172,1.049,0.523,1.449
	c0.353,0.387,0.803,0.588,1.365,0.588c0.66,0,1.17-0.254,1.535-0.763C59.645,25.201,59.832,24.535,59.832,23.702 M61.606,23.645
	c0,1.328-0.359,2.385-1.085,3.16c-0.648,0.69-1.456,1.033-2.419,1.033c-1.042,0-1.792-0.371-2.246-1.112v4.123h-1.741v-8.455
	c0-0.842-0.022-1.702-0.064-2.581h1.534l0.093,1.245h0.034c0.578-0.946,1.463-1.408,2.652-1.408c0.92,0,1.695,0.363,2.313,1.1
	C61.294,21.483,61.606,22.448,61.606,23.645"/>
<path d="M71.705,24.606c0,0.933-0.325,1.677-0.969,2.266c-0.707,0.628-1.697,0.953-2.965,0.953c-1.173,0-2.114-0.232-2.817-0.688
	l0.401-1.449c0.763,0.454,1.609,0.679,2.513,0.679c0.662,0,1.176-0.146,1.537-0.447c0.367-0.29,0.554-0.686,0.554-1.187
	c0-0.437-0.153-0.803-0.452-1.107c-0.301-0.304-0.804-0.583-1.504-0.84c-1.905-0.713-2.854-1.754-2.854-3.121
	c0-0.891,0.333-1.619,1.005-2.194c0.672-0.571,1.563-0.858,2.67-0.858c0.994,0,1.818,0.175,2.477,0.52l-0.439,1.416
	c-0.617-0.333-1.312-0.499-2.09-0.499c-0.621,0-1.103,0.15-1.447,0.453c-0.287,0.271-0.437,0.596-0.437,0.991
	c0,0.424,0.168,0.784,0.501,1.063c0.287,0.253,0.814,0.532,1.588,0.836c0.935,0.375,1.622,0.824,2.062,1.323
	C71.481,23.223,71.705,23.859,71.705,24.606"/>
<path d="M77.479,21.12h-1.916v3.815c0,0.961,0.337,1.445,1.016,1.445c0.314,0,0.569-0.025,0.773-0.079L77.4,27.63
	c-0.343,0.129-0.795,0.191-1.354,0.191c-0.688,0-1.222-0.207-1.616-0.632c-0.386-0.417-0.585-1.121-0.585-2.116v-3.957h-1.144
	v-1.303h1.144v-1.441l1.719-0.517v1.957h1.916V21.12L77.479,21.12z"/>
<path d="M84.329,23.712c0-0.716-0.154-1.338-0.467-1.854c-0.361-0.616-0.886-0.933-1.565-0.933c-0.697,0-1.235,0.316-1.6,0.933
	c-0.312,0.517-0.461,1.15-0.461,1.888c0,0.72,0.149,1.344,0.461,1.853c0.38,0.625,0.905,0.933,1.588,0.933
	c0.664,0,1.191-0.317,1.565-0.949C84.168,25.055,84.329,24.432,84.329,23.712 M86.14,23.668c0,1.212-0.343,2.2-1.039,2.979
	c-0.716,0.792-1.669,1.191-2.871,1.191c-1.149,0-2.065-0.383-2.755-1.145c-0.684-0.768-1.021-1.729-1.021-2.888
	c0-1.22,0.352-2.219,1.056-2.993c0.707-0.774,1.659-1.163,2.851-1.163c1.154,0,2.077,0.383,2.778,1.146
	C85.809,21.546,86.14,22.498,86.14,23.668"/>
<path d="M91.812,21.345c-0.175-0.031-0.358-0.045-0.548-0.045c-0.619,0-1.093,0.229-1.426,0.69c-0.291,0.412-0.437,0.93-0.437,1.559
	v4.114H87.66v-5.38c0-0.899-0.015-1.725-0.052-2.47h1.517l0.068,1.503h0.047c0.187-0.521,0.476-0.928,0.871-1.245
	c0.39-0.273,0.81-0.421,1.264-0.421c0.161,0,0.308,0.009,0.438,0.034V21.345z"/>
<path d="M97.949,22.915c0.01-0.516-0.104-0.97-0.338-1.342c-0.303-0.49-0.767-0.732-1.391-0.732c-0.571,0-1.033,0.237-1.388,0.711
	c-0.295,0.377-0.466,0.834-0.517,1.361h3.633V22.915z M99.611,23.365c0,0.312-0.022,0.578-0.062,0.787h-5.23
	c0.017,0.783,0.271,1.37,0.76,1.778c0.436,0.366,1.007,0.55,1.709,0.55c0.776,0,1.488-0.121,2.116-0.372l0.274,1.216
	c-0.741,0.317-1.619,0.487-2.633,0.487c-1.22,0-2.175-0.361-2.869-1.079c-0.693-0.72-1.043-1.678-1.043-2.881
	c0-1.184,0.32-2.173,0.973-2.958c0.676-0.841,1.59-1.258,2.745-1.258c1.133,0,1.988,0.417,2.568,1.258
	C99.379,21.562,99.611,22.388,99.611,23.365"/>
<path d="M38,10.65l-0.452-1.399c-0.048-0.142-0.135-0.478-0.271-1.004h-0.013c-0.053,0.225-0.14,0.565-0.254,1.004l-0.446,1.399H38z
	 M39.562,12.883h-0.908l-0.502-1.57h-1.739l-0.476,1.57H35.05l1.72-5.351h1.063L39.562,12.883z"/>
<path d="M43.866,9.023l-1.457,3.86h-0.837l-1.414-3.86h0.92l0.663,2.036c0.11,0.346,0.198,0.671,0.274,0.979h0.023
	c0.065-0.279,0.156-0.604,0.282-0.979l0.646-2.036H43.866z"/>
<path d="M46.867,11.555v-0.596c-0.95-0.016-1.422,0.246-1.422,0.779c0,0.204,0.056,0.35,0.162,0.454c0.113,0.1,0.25,0.15,0.421,0.15
	c0.189,0,0.364-0.063,0.524-0.184c0.159-0.117,0.263-0.262,0.295-0.454L46.867,11.555z M47.756,12.883h-0.772l-0.062-0.449h-0.025
	c-0.268,0.354-0.639,0.537-1.126,0.537c-0.367,0-0.656-0.118-0.883-0.35c-0.2-0.217-0.297-0.479-0.297-0.788
	c0-0.479,0.193-0.833,0.586-1.078c0.396-0.25,0.946-0.379,1.668-0.367v-0.076c0-0.512-0.271-0.758-0.804-0.758
	c-0.381,0-0.721,0.096-1.008,0.283l-0.173-0.562c0.354-0.22,0.799-0.334,1.32-0.334c1.017,0,1.522,0.535,1.522,1.6v1.42
	C47.702,12.346,47.715,12.649,47.756,12.883"/>
<path d="M50.045,12.883h-0.856v-3.86h0.856V12.883z M50.141,7.872c0,0.154-0.05,0.277-0.149,0.375
	c-0.103,0.098-0.232,0.138-0.386,0.138c-0.147,0-0.269-0.043-0.364-0.142c-0.095-0.094-0.148-0.22-0.148-0.371
	c0-0.145,0.053-0.272,0.154-0.364c0.1-0.094,0.223-0.14,0.373-0.14c0.145,0,0.269,0.046,0.373,0.14
	C50.091,7.599,50.141,7.726,50.141,7.872"/>
<rect x="51.569" y="7.257" width="0.86" height="5.626"/>
<path d="M55.958,11.555v-0.596c-0.946-0.016-1.422,0.246-1.422,0.779c0,0.204,0.054,0.35,0.167,0.454
	c0.114,0.1,0.248,0.15,0.418,0.15c0.19,0,0.367-0.063,0.524-0.184c0.161-0.117,0.26-0.262,0.295-0.454L55.958,11.555z
	 M56.845,12.883h-0.77l-0.062-0.449h-0.018c-0.269,0.354-0.643,0.537-1.13,0.537c-0.367,0-0.657-0.118-0.88-0.35
	c-0.198-0.217-0.303-0.479-0.303-0.788c0-0.479,0.198-0.833,0.596-1.078c0.389-0.25,0.946-0.379,1.661-0.367v-0.076
	c0-0.512-0.266-0.758-0.801-0.758c-0.385,0-0.718,0.096-1.009,0.283l-0.173-0.562c0.358-0.22,0.797-0.334,1.32-0.334
	c1.014,0,1.518,0.535,1.518,1.6v1.42C56.791,12.346,56.81,12.649,56.845,12.883"/>
<path d="M61.093,10.93c0-0.379-0.086-0.683-0.258-0.924c-0.187-0.258-0.435-0.387-0.753-0.387c-0.208,0-0.403,0.071-0.571,0.204
	c-0.167,0.142-0.282,0.321-0.336,0.554c-0.021,0.088-0.034,0.175-0.034,0.263v0.679c0,0.262,0.086,0.496,0.264,0.679
	c0.176,0.191,0.397,0.287,0.664,0.287c0.323,0,0.571-0.125,0.751-0.362C61.003,11.679,61.093,11.346,61.093,10.93 M61.961,10.896
	c0,0.649-0.178,1.17-0.536,1.558c-0.318,0.346-0.705,0.517-1.167,0.517c-0.551,0-0.956-0.226-1.209-0.687h-0.018l-0.047,0.6h-0.733
	c0.024-0.312,0.034-0.663,0.034-1.042V7.257h0.854v2.332c0.252-0.433,0.667-0.646,1.238-0.646c0.468,0,0.845,0.177,1.141,0.538
	C61.818,9.834,61.961,10.309,61.961,10.896"/>
<rect x="63.231" y="7.257" width="0.857" height="5.626"/>
<path d="M67.972,10.551c0.005-0.262-0.054-0.475-0.163-0.663c-0.156-0.237-0.38-0.358-0.688-0.358c-0.277,0-0.509,0.112-0.688,0.349
	c-0.136,0.184-0.219,0.405-0.247,0.671L67.972,10.551L67.972,10.551z M68.789,10.767c0,0.158-0.016,0.283-0.033,0.387h-2.569
	c0.012,0.388,0.133,0.675,0.37,0.875c0.22,0.179,0.5,0.271,0.84,0.271c0.383,0,0.731-0.062,1.039-0.184l0.138,0.6
	c-0.364,0.158-0.797,0.233-1.298,0.233c-0.591,0-1.059-0.17-1.405-0.529c-0.338-0.346-0.509-0.82-0.509-1.417
	c0-0.575,0.156-1.066,0.474-1.449c0.335-0.408,0.782-0.617,1.347-0.617c0.56,0,0.977,0.209,1.262,0.617
	C68.672,9.879,68.789,10.284,68.789,10.767"/>
<path d="M74.983,10.938c0-0.354-0.075-0.658-0.229-0.912c-0.183-0.304-0.438-0.454-0.77-0.454c-0.346,0-0.61,0.15-0.785,0.454
	c-0.154,0.253-0.231,0.562-0.231,0.928c0,0.359,0.079,0.658,0.231,0.912c0.188,0.304,0.442,0.458,0.778,0.458
	c0.324,0,0.583-0.154,0.771-0.462C74.906,11.6,74.983,11.292,74.983,10.938 M75.873,10.917c0,0.596-0.166,1.083-0.511,1.467
	c-0.354,0.387-0.822,0.587-1.407,0.587c-0.566,0-1.019-0.188-1.354-0.571c-0.331-0.371-0.503-0.845-0.503-1.416
	c0-0.6,0.174-1.091,0.518-1.47c0.352-0.379,0.811-0.572,1.402-0.572c0.568,0,1.025,0.189,1.366,0.567
	C75.71,9.872,75.873,10.342,75.873,10.917"/>
<path d="M80.493,12.883h-0.86v-2.22c0-0.679-0.255-1.024-0.778-1.024c-0.252,0-0.453,0.1-0.613,0.287
	c-0.163,0.183-0.24,0.409-0.24,0.654v2.303h-0.857v-2.757c0-0.337-0.01-0.708-0.028-1.108h0.75l0.043,0.6h0.022
	c0.099-0.188,0.247-0.337,0.441-0.462c0.235-0.142,0.489-0.213,0.778-0.213c0.358,0,0.659,0.118,0.902,0.347
	c0.296,0.288,0.44,0.717,0.44,1.279V12.883L80.493,12.883z"/>
<path d="M86.104,9.664h-0.943v1.875c0,0.479,0.163,0.716,0.498,0.716c0.154,0,0.278-0.016,0.381-0.045l0.022,0.658
	c-0.174,0.062-0.391,0.088-0.666,0.088c-0.338,0-0.604-0.1-0.793-0.305c-0.193-0.208-0.291-0.549-0.291-1.041V9.665h-0.563V9.023
	h0.563V8.315l0.842-0.251v0.959h0.95V9.664z"/>
<path d="M90.632,12.883h-0.854V10.68c0-0.691-0.262-1.041-0.778-1.041c-0.395,0-0.671,0.204-0.82,0.607
	c-0.025,0.079-0.038,0.184-0.038,0.305v2.332h-0.855V7.257h0.855v2.314h0.019c0.264-0.42,0.657-0.63,1.152-0.63
	c0.36,0,0.652,0.118,0.883,0.352c0.292,0.292,0.437,0.725,0.437,1.291V12.883L90.632,12.883z"/>
<path d="M94.228,10.551c0.007-0.262-0.054-0.475-0.165-0.663c-0.151-0.237-0.376-0.358-0.684-0.358
	c-0.279,0-0.506,0.112-0.683,0.349c-0.14,0.184-0.226,0.405-0.256,0.671L94.228,10.551L94.228,10.551z M95.044,10.767
	c0,0.158-0.013,0.283-0.033,0.387h-2.57c0.014,0.388,0.139,0.675,0.375,0.875c0.219,0.179,0.496,0.271,0.839,0.271
	c0.383,0,0.732-0.062,1.037-0.184l0.138,0.6c-0.364,0.158-0.793,0.233-1.294,0.233c-0.594,0-1.064-0.17-1.405-0.529
	c-0.343-0.346-0.513-0.82-0.513-1.417c0-0.575,0.16-1.066,0.473-1.449c0.334-0.408,0.784-0.617,1.348-0.617
	c0.555,0,0.979,0.209,1.261,0.617C94.929,9.879,95.044,10.284,95.044,10.767"/>
</svg>
