<?xml version="1.0" encoding="utf-8"?>
<!-- Generator: Adobe Illustrator 16.0.0, SVG Export Plug-In . SVG Version: 6.00 Build 0)  -->
<!DOCTYPE svg PUBLIC "-//W3C//DTD SVG 1.1//EN" "http://www.w3.org/Graphics/SVG/1.1/DTD/svg11.dtd">
<svg version="1.1" id="Layer_1" xmlns="http://www.w3.org/2000/svg" xmlns:xlink="http://www.w3.org/1999/xlink" x="0px" y="0px"
	 width="28.35px" height="28.35px" viewBox="0 0 28.35 28.35" enable-background="new 0 0 28.35 28.35" xml:space="preserve">
<path fill="#CCCCCC" d="M24.331,20.999l-10.149-9.707L3.893,21.125l0,0c-0.351,0.32-0.821,0.521-1.344,0.521
	c-1.073,0-1.94-0.832-1.94-1.854c0-0.502,0.205-0.953,0.548-1.284l0,0L12.78,7.386v0.005c0.355-0.351,0.853-0.564,1.394-0.564
	c0.004,0,0.004,0,0.01,0l0,0c0.552,0,1.042,0.215,1.395,0.564V7.386L27.21,18.507h-0.011c0.336,0.337,0.542,0.787,0.542,1.284
	c0,1.022-0.867,1.854-1.936,1.854C25.214,21.646,24.692,21.396,24.331,20.999z"/>
</svg>
