<?xml version="1.0" encoding="utf-8"?>
<!-- Generator: Adobe Illustrator 16.0.0, SVG Export Plug-In . SVG Version: 6.00 Build 0)  -->
<!DOCTYPE svg PUBLIC "-//W3C//DTD SVG 1.1//EN" "http://www.w3.org/Graphics/SVG/1.1/DTD/svg11.dtd">
<svg version="1.1" id="Layer_1" xmlns="http://www.w3.org/2000/svg" xmlns:xlink="http://www.w3.org/1999/xlink" x="0px" y="0px"
	 width="28.35px" height="28.35px" viewBox="0 0 28.35 28.35" enable-background="new 0 0 28.35 28.35" xml:space="preserve">
<path fill="#00AAE7" d="M4.019,7.473l10.149,9.707l10.289-9.833l0,0c0.351-0.32,0.821-0.521,1.344-0.521
	c1.073,0,1.94,0.832,1.94,1.854c0,0.502-0.205,0.953-0.548,1.284l0,0L15.571,21.086v-0.005c-0.355,0.351-0.853,0.564-1.394,0.564
	c-0.004,0-0.004,0-0.01,0l0,0c-0.552,0-1.042-0.215-1.395-0.564v0.005L1.14,9.965h0.011C0.815,9.628,0.609,9.178,0.609,8.681
	c0-1.022,0.867-1.854,1.936-1.854C3.136,6.826,3.658,7.076,4.019,7.473z"/>
</svg>
