<?xml version="1.0" encoding="utf-8"?>
<!-- Generator: Adobe Illustrator 16.0.0, SVG Export Plug-In . SVG Version: 6.00 Build 0)  -->
<!DOCTYPE svg PUBLIC "-//W3C//DTD SVG 1.1//EN" "http://www.w3.org/Graphics/SVG/1.1/DTD/svg11.dtd">
<svg version="1.1" id="Capa_1" xmlns="http://www.w3.org/2000/svg" xmlns:xlink="http://www.w3.org/1999/xlink" x="0px" y="0px"
	 width="90px" height="90px" viewBox="0 0 90 90" enable-background="new 0 0 90 90" xml:space="preserve">
<path fill-rule="evenodd" clip-rule="evenodd" fill="#FF9933" d="M86.359,16.033c-4.045-4.044-10.6-4.044-14.644,0L30.21,57.539
	L18.03,45.358c-4.044-4.044-10.606-4.044-14.651,0c-4.044,4.052-4.044,10.607,0,14.652l19.482,19.482
	c0.016,0.008,0.016,0.022,0.016,0.022c0.016,0.016,0.016,0.016,0.032,0.016l0.008,0.016c4.044,4.044,10.599,4.044,14.643,0
	c0.055-0.054,0.071-0.125,0.126-0.181l48.674-48.681C90.411,26.64,90.411,20.078,86.359,16.033z"/>
</svg>
