<?xml version="1.0" encoding="utf-8"?>
<!-- Generator: Adobe Illustrator 16.0.0, SVG Export Plug-In . SVG Version: 6.00 Build 0)  -->
<!DOCTYPE svg PUBLIC "-//W3C//DTD SVG 1.1//EN" "http://www.w3.org/Graphics/SVG/1.1/DTD/svg11.dtd">
<svg version="1.1" id="Layer_1" xmlns="http://www.w3.org/2000/svg" xmlns:xlink="http://www.w3.org/1999/xlink" x="0px" y="0px"
	 width="28.35px" height="35px" viewBox="0 0 28.35 35" enable-background="new 0 0 28.35 35" xml:space="preserve">
<polygon fill="#475D72" points="28.35,35 0,35 0,0 22.3,0 28.35,6.05 "/>
<g enable-background="new    ">
	<path fill="#CCCCCC" d="M5.516,23.627H4.399v-1.326h1.117V23.627z"/>
	<path fill="#CCCCCC" d="M11.063,20.11c0,0.813-0.139,1.548-0.417,2.204c-0.37,0.875-0.912,1.312-1.627,1.312H6.567v-6.62H9.09
		c0.656,0,1.165,0.35,1.525,1.051C10.914,18.637,11.063,19.321,11.063,20.11z M9.902,20.194c0-0.564-0.075-1.025-0.226-1.383
		c-0.213-0.506-0.556-0.759-1.029-0.759H7.684v4.527h0.852C9.446,22.58,9.902,21.785,9.902,20.194z"/>
	<path fill="#CCCCCC" d="M16.89,20.368c0,0.934-0.196,1.716-0.59,2.346c-0.467,0.748-1.139,1.121-2.017,1.121
		s-1.551-0.372-2.018-1.117c-0.396-0.63-0.594-1.413-0.594-2.35c0-0.938,0.198-1.721,0.594-2.351
		c0.47-0.748,1.143-1.122,2.018-1.122c0.878,0,1.55,0.374,2.017,1.122C16.694,18.647,16.89,19.431,16.89,20.368z M15.728,20.368
		c0-0.624-0.092-1.14-0.274-1.548c-0.248-0.55-0.639-0.825-1.17-0.825c-0.535,0-0.927,0.273-1.175,0.82
		c-0.183,0.405-0.275,0.923-0.275,1.553c0,0.629,0.092,1.146,0.275,1.552c0.245,0.544,0.637,0.815,1.175,0.815
		c0.532,0,0.922-0.274,1.17-0.824C15.636,21.503,15.728,20.988,15.728,20.368z"/>
	<path fill="#CCCCCC" d="M22.269,21.365c-0.009,0.707-0.22,1.289-0.634,1.747c-0.429,0.482-0.992,0.723-1.689,0.723
		c-0.887,0-1.538-0.375-1.956-1.126c-0.33-0.594-0.496-1.372-0.496-2.332c0-0.94,0.173-1.717,0.52-2.328
		c0.434-0.769,1.091-1.153,1.968-1.153c0.662,0,1.208,0.228,1.637,0.683c0.417,0.44,0.634,0.998,0.651,1.672h-1.063
		c-0.03-0.298-0.117-0.562-0.262-0.789c-0.219-0.346-0.537-0.519-0.954-0.519c-0.878,0-1.316,0.835-1.316,2.505
		c0,0.574,0.074,1.06,0.222,1.459c0.21,0.564,0.541,0.847,0.993,0.847c0.78,0,1.214-0.462,1.3-1.388H22.269z"/>
</g>
<polygon fill="#CCCCCC" points="28.35,6.016 22.28,6.016 22.28,0 "/>
</svg>
