<?xml version="1.0" encoding="utf-8"?>
<!-- Generator: Adobe Illustrator 16.0.0, SVG Export Plug-In . SVG Version: 6.00 Build 0)  -->
<!DOCTYPE svg PUBLIC "-//W3C//DTD SVG 1.1//EN" "http://www.w3.org/Graphics/SVG/1.1/DTD/svg11.dtd">
<svg version="1.1" id="Layer_1" xmlns="http://www.w3.org/2000/svg" xmlns:xlink="http://www.w3.org/1999/xlink" x="0px" y="0px"
	 width="28.35px" height="28.35px" viewBox="0 0 28.35 28.35" enable-background="new 0 0 28.35 28.35" xml:space="preserve">
<g>
	<path fill="#FFFFFF" d="M0,0v28.35h28.35V0H0z M17.114,14.174h-1.885v6.842h-2.832v-6.842h-1.412v-2.358h1.412v-1.42
		c0-1.007,0.238-1.77,0.713-2.288c0.477-0.518,1.26-0.776,2.351-0.776h1.885V9.69h-1.179c-0.216,0-0.39,0.018-0.52,0.054
		c-0.13,0.036-0.224,0.101-0.282,0.195c-0.059,0.094-0.096,0.189-0.111,0.287c-0.018,0.097-0.025,0.234-0.025,0.411v1.179h2.134
		L17.114,14.174z"/>
</g>
</svg>
