<?xml version="1.0" encoding="utf-8"?>
<!-- Generator: Adobe Illustrator 16.0.0, SVG Export Plug-In . SVG Version: 6.00 Build 0)  -->
<!DOCTYPE svg PUBLIC "-//W3C//DTD SVG 1.1//EN" "http://www.w3.org/Graphics/SVG/1.1/DTD/svg11.dtd">
<svg version="1.1" id="Capa_1" xmlns="http://www.w3.org/2000/svg" xmlns:xlink="http://www.w3.org/1999/xlink" x="0px" y="0px"
	 width="90px" height="90px" viewBox="0 0 90 90" enable-background="new 0 0 90 90" xml:space="preserve">
<g>
	<path fill="#FFFFFF" d="M45,2c23.71,0,43,19.29,43,43c0,23.71-19.29,43-43,43C21.29,88,2,68.71,2,45C2,21.29,21.29,2,45,2 M45,0
		C20.147,0,0,20.147,0,45c0,24.853,20.147,45,45,45c24.853,0,45-20.147,45-45C90,20.147,69.853,0,45,0L45,0z"/>
</g>
<g>
	<path fill="#FFFFFF" d="M49.035,24.074c0.075,2.223-1.556,4.002-4.146,4.002c-2.298,0-3.927-1.779-3.927-4.002
		c0-2.295,1.704-4.074,4.075-4.074C47.479,20,49.035,21.779,49.035,24.074z M41.776,70V34.149h6.52V70H41.776z"/>
</g>
</svg>
