<?xml version="1.0" encoding="utf-8"?>
<!-- Generator: Adobe Illustrator 16.0.0, SVG Export Plug-In . SVG Version: 6.00 Build 0)  -->
<!DOCTYPE svg PUBLIC "-//W3C//DTD SVG 1.1//EN" "http://www.w3.org/Graphics/SVG/1.1/DTD/svg11.dtd">
<svg version="1.1" id="Layer_1" xmlns="http://www.w3.org/2000/svg" xmlns:xlink="http://www.w3.org/1999/xlink" x="0px" y="0px"
	 width="28.35px" height="28.35px" viewBox="0 0 28.35 28.35" enable-background="new 0 0 28.35 28.35" xml:space="preserve">
<path fill-rule="evenodd" clip-rule="evenodd" fill="#CCCCCC" d="M9.402,0.188c4.97,0,8.996,4.021,8.996,8.986
	c0,0.504-0.041,1.003-0.121,1.493c-0.051,0.182-0.086,0.369-0.111,0.556c-0.207,1.473,0.258,3.021,1.393,4.152l0,0l7.572,7.562
	c1.09,1.089,1.09,2.851,0,3.939c-0.504,0.505-1.16,0.787-1.816,0.808c-0.766,0.051-1.553-0.222-2.139-0.808l-0.807-0.807
	c-0.162-0.161-0.252-0.383-0.262-0.605v-0.091V24.94c0-0.04,0-0.081,0-0.116c-0.021-0.218-0.102-0.434-0.273-0.601l-1.316-1.316
	c-0.172-0.172-0.389-0.263-0.611-0.273c-0.029,0-0.064,0-0.09,0h-0.48c-0.016,0-0.029,0-0.045,0
	c-0.232-0.004-0.459-0.095-0.635-0.271l-0.232-0.232c-0.166-0.166-0.258-0.378-0.268-0.6c0-0.006,0-0.006,0-0.011v-0.091
	c0-0.005,0-0.011,0-0.011v-0.429c0-0.034,0-0.075,0-0.11c-0.016-0.222-0.105-0.434-0.273-0.601c-0.039-0.04-0.08-0.076-0.125-0.106
	c-0.146-0.105-0.318-0.161-0.49-0.166c-0.025-0.005-0.055-0.005-0.086,0h-0.418h-0.156c-0.064-0.005-0.127-0.02-0.188-0.035
	c-0.145-0.04-0.281-0.121-0.393-0.237l-0.42-0.413c-1.134-1.136-2.688-1.601-4.162-1.394c-0.187,0.026-0.368,0.066-0.55,0.111
	c-0.484,0.081-0.983,0.121-1.494,0.121c-4.974,0-9-4.021-9-8.985C0.402,4.209,4.428,0.188,9.402,0.188z M22.369,24.764v-0.011
	c0,0.006,0,0.016,0,0.021C22.369,24.769,22.369,24.769,22.369,24.764z M17.652,20.047l-0.041-0.041l0,0
	C17.625,20.021,17.637,20.031,17.652,20.047z M8.096,10.662c1.544,0,2.795-1.246,2.795-2.79c0-1.538-1.251-2.79-2.795-2.79
	c-1.539,0-2.79,1.252-2.79,2.79C5.306,9.416,6.557,10.662,8.096,10.662z"/>
</svg>
