<?xml version="1.0" encoding="utf-8"?>
<!-- Generator: Adobe Illustrator 16.0.0, SVG Export Plug-In . SVG Version: 6.00 Build 0)  -->
<!DOCTYPE svg PUBLIC "-//W3C//DTD SVG 1.1//EN" "http://www.w3.org/Graphics/SVG/1.1/DTD/svg11.dtd">
<svg version="1.1" id="Layer_1" xmlns="http://www.w3.org/2000/svg" xmlns:xlink="http://www.w3.org/1999/xlink" x="0px" y="0px"
	 width="521.551px" height="80.173px" viewBox="0 0 521.551 80.173" enable-background="new 0 0 521.551 80.173"
	 xml:space="preserve">
<path fill="#FFFFFF" d="M41.247,6.905L9.521,73.7h14.103l7.82-16.445h29.401L68.873,73.7h14.108L50.93,6.905H41.247z M46.07,26.539
	l8.71,17.911H37.486L46.07,26.539z"/>
<polygon fill="#FFFFFF" points="163.551,6.905 215.739,6.905 215.739,19.621 176.423,19.621 176.423,31.849 200.21,31.849 
	200.21,44.571 176.423,44.571 176.423,60.989 218.18,60.989 218.18,73.7 163.551,73.7 "/>
<path fill="#FFFFFF" d="M336.519,46.942h-18.607V73.7h-12.879V6.905h36.775c12.889,0,21.373,7.264,21.373,19.865
	c0,8.715-4.854,16.092-12.663,19.026L365.911,73.7h-14.539L336.519,46.942z M317.912,19.616v14.507h23.446
	c6.385,0,8.615-2.613,8.615-7.133c0-4.53-2.446-7.374-8.28-7.374H317.912z"/>
<path fill="#FFFFFF" d="M446.573,40.36c0-20.18,14.203-34.917,33.471-34.917c19.278,0,33.586,14.737,33.586,34.917
	c0,20.174-14.308,34.801-33.586,34.801C460.776,75.161,446.573,60.534,446.573,40.36 M459.681,40.36
	c0,13.051,8.804,21.99,20.362,21.99c11.7,0,20.389-9.086,20.389-21.99c0-13.041-8.688-22.117-20.389-22.117
	C468.485,18.244,459.681,27.32,459.681,40.36"/>
</svg>
