<?xml version="1.0" encoding="utf-8"?>
<!-- Generator: Adobe Illustrator 16.0.0, SVG Export Plug-In . SVG Version: 6.00 Build 0)  -->
<!DOCTYPE svg PUBLIC "-//W3C//DTD SVG 1.1//EN" "http://www.w3.org/Graphics/SVG/1.1/DTD/svg11.dtd">
<svg version="1.1" id="Layer_1" xmlns="http://www.w3.org/2000/svg" xmlns:xlink="http://www.w3.org/1999/xlink" x="0px" y="0px"
	 width="28.35px" height="28.35px" viewBox="0 0 28.35 28.35" enable-background="new 0 0 28.35 28.35" xml:space="preserve">
<path fill-rule="evenodd" clip-rule="evenodd" fill="#FFFFFF" d="M26.871,22.994c0.494,0.494,0.803,1.181,0.803,1.938
	c0,1.514-1.229,2.742-2.742,2.742c-0.758,0-1.443-0.307-1.939-0.803l0,0l-5.785-5.786c-1.633,0.964-3.531,1.527-5.563,1.527
	c-6.058,0-10.968-4.911-10.968-10.968c0-6.058,4.91-10.969,10.968-10.969s10.968,4.912,10.968,10.969
	c0,2.033-0.562,3.93-1.527,5.562L26.871,22.994L26.871,22.994z M11.642,4.311c-4.049,0-7.332,3.282-7.332,7.332
	c0,4.051,3.283,7.332,7.332,7.332c4.05,0,7.333-3.281,7.333-7.332C18.975,7.593,15.691,4.311,11.642,4.311z"/>
</svg>
