<?xml version="1.0" encoding="utf-8"?>
<!-- Generator: Adobe Illustrator 16.0.0, SVG Export Plug-In . SVG Version: 6.00 Build 0)  -->
<!DOCTYPE svg PUBLIC "-//W3C//DTD SVG 1.1//EN" "http://www.w3.org/Graphics/SVG/1.1/DTD/svg11.dtd">
<svg version="1.1" id="Layer_1" xmlns="http://www.w3.org/2000/svg" xmlns:xlink="http://www.w3.org/1999/xlink" x="0px" y="0px"
	 width="28.35px" height="28.35px" viewBox="0 0 28.35 28.35" enable-background="new 0 0 28.35 28.35" xml:space="preserve">
<path fill-rule="evenodd" clip-rule="evenodd" fill="#FFFFFF" d="M0,0v28.35h28.35V0H0z M22.291,16.755
	c1.657,1.538,2.002,2.286,2.058,2.379c0.687,1.142-0.76,1.23-0.76,1.23L20.82,20.4c0,0-0.596,0.119-1.377-0.418
	c-1.035-0.708-2.011-2.556-2.771-2.315c-0.771,0.244-0.747,1.907-0.747,1.907s0.004,0.237-0.171,0.429
	c-0.189,0.199-0.563,0.124-0.563,0.124h-1.237c0,0-2.733,0.28-5.14-2.225C6.188,15.17,3.87,9.804,3.87,9.804
	S3.738,9.479,3.882,9.306C4.046,9.113,4.49,9.115,4.49,9.115l2.961-0.011c0,0,0.278,0.05,0.478,0.196
	c0.165,0.121,0.257,0.35,0.257,0.35s0.479,1.211,1.112,2.306c1.237,2.137,1.813,2.605,2.232,2.375
	c0.613-0.334,0.429-3.021,0.429-3.021s0.012-0.976-0.308-1.411c-0.247-0.336-0.713-0.435-0.919-0.462
	c-0.167-0.022,0.105-0.409,0.461-0.583c0.533-0.26,1.475-0.274,2.586-0.264c0.866,0.009,1.116,0.063,1.454,0.145
	c1.021,0.246,0.674,1.199,0.674,3.481c0,0.731-0.131,1.759,0.396,2.1c0.229,0.147,0.784,0.023,2.169-2.333
	c0.658-1.117,1.148-2.429,1.148-2.429s0.11-0.234,0.275-0.335c0.172-0.102,0.402-0.07,0.402-0.07l3.119-0.02
	c0,0,0.936-0.112,1.087,0.311c0.161,0.443-0.351,1.479-1.623,3.176C20.787,15.403,20.557,15.144,22.291,16.755z"/>
</svg>
